<svg width="12" height="14" viewBox="0 0 12 14" fill="none" xmlns="http://www.w3.org/2000/svg">
<g id="Icon">
<path id="Vector" fill-rule="evenodd" clip-rule="evenodd" d="M0.414752 11.2102C0.520242 11.3157 0.663316 11.375 0.8125 11.375C0.961684 11.375 1.10476 11.3157 1.21025 11.2102C1.31574 11.1048 1.375 10.9617 1.375 10.8125V1.25H4.75C4.89918 1.25 5.04226 1.19074 5.14775 1.08525C5.25324 0.979758 5.3125 0.836684 5.3125 0.6875C5.3125 0.538316 5.25324 0.395242 5.14775 0.289752C5.04226 0.184263 4.89918 0.125 4.75 0.125H0.8125C0.663316 0.125 0.520242 0.184263 0.414752 0.289752C0.309263 0.395242 0.25 0.538316 0.25 0.6875V10.8125C0.25 10.9617 0.309263 11.1048 0.414752 11.2102ZM6.83687 2.53813L11.3369 7.03813C11.4405 7.14537 11.4989 7.28837 11.5 7.4375V13.0625C11.4996 13.2116 11.4402 13.3544 11.3348 13.4598C11.2294 13.5652 11.0866 13.6246 10.9375 13.625H3.0625C2.91345 13.6246 2.77062 13.5652 2.66523 13.4598C2.55983 13.3544 2.50043 13.2116 2.5 13.0625V2.9375C2.50043 2.78845 2.55983 2.64562 2.66523 2.54023C2.77062 2.43483 2.91345 2.37543 3.0625 2.375H6.4375C6.58663 2.37607 6.72964 2.43448 6.83687 2.53813ZM9.565 6.85813L7 4.29313V6.875L9.565 6.85813ZM3.625 12.5H10.375V7.98313L6.4375 8C6.28807 8.00042 6.14453 7.94179 6.03813 7.83687C5.9345 7.72963 5.87609 7.58663 5.875 7.4375V3.5H3.625V12.5Z" fill="white"/>
</g>
</svg>
